<svg width="577" height="614" viewBox="0 0 577 614" fill="none" xmlns="http://www.w3.org/2000/svg">
<path d="M3.92108 0C0.968335 0 -0.385344 8.71935 0.0948298 22.4565C1.71104 68.694 24.1033 171.779 76.2248 190.559C150.504 217.323 159.477 15.7769 232.042 48.121C315.771 85.4409 73.1646 283.418 161.98 298.992C220.692 309.287 231.821 199.508 290.894 206.599C386.243 218.045 195.044 489.992 290.894 487.626C359.803 485.925 341.925 319.678 410.84 318.24C504.629 316.283 380.278 662.398 461.284 608.249C483.234 593.577 501.887 573.609 517.333 552.572C555.923 500.016 574.504 440.788 574.504 440.788L593 0C593 0 16.8124 0 3.92108 0Z" fill="white"/>
</svg>
